<svg width="80" height="80" viewBox="0 0 80 80" fill="none" xmlns="http://www.w3.org/2000/svg">
<path d="M76.5958 3.46339C75.0675 1.90611 73.1295 0.813073 71.0058 0.310655C68.8821 -0.191763 66.6596 -0.0830368 64.5951 0.624262L7.99187 19.5384C5.70899 20.2854 3.71437 21.7224 2.28335 23.6509C0.852328 25.5795 0.055475 27.9045 0.00279176 30.3051C-0.0498915 32.7057 0.644194 35.0635 1.98923 37.0529C3.33427 39.0424 5.26393 40.5654 7.51184 41.4117L28.473 49.4092C28.9503 49.5917 29.3849 49.8705 29.7497 50.2282C30.1145 50.586 30.4016 51.015 30.5932 51.4886L38.5936 72.4821C39.408 74.6974 40.8858 76.6079 42.8257 77.9531C44.7656 79.2984 47.0733 80.0131 49.4342 79.9998H49.7143C52.1185 79.9561 54.4487 79.1614 56.3784 77.7272C58.3081 76.293 59.7405 74.2912 60.4749 72.0023L79.396 15.3397C80.0841 13.2961 80.1865 11.1008 79.6917 9.00202C79.1968 6.90325 78.1245 4.98472 76.5958 3.46339ZM71.9955 12.8205L52.8744 69.523C52.6524 70.2407 52.2065 70.8685 51.6019 71.3146C50.9973 71.7607 50.2657 72.0017 49.5143 72.0023C48.7672 72.0145 48.0342 71.7992 47.4125 71.3849C46.7909 70.9706 46.3101 70.377 46.0341 69.683L38.0336 48.6895C37.4536 47.164 36.5591 45.7776 35.4082 44.6202C34.2573 43.4629 32.8757 42.5604 31.3532 41.9715L10.352 33.974C9.64353 33.7145 9.03453 33.239 8.61104 32.6148C8.18754 31.9905 7.97095 31.249 7.99187 30.4951C7.99248 29.7439 8.23355 29.0126 8.6798 28.4082C9.12606 27.8038 9.75409 27.358 10.472 27.1361L67.1953 8.22192C67.8465 7.95659 68.5607 7.88551 69.2515 8.01728C69.9423 8.14905 70.5801 8.47803 71.0879 8.96444C71.5956 9.45085 71.9515 10.0739 72.1126 10.7582C72.2737 11.4425 72.233 12.1588 71.9955 12.8205Z" fill="url(#paint0_linear_3803_30)"/>
<defs>
<linearGradient id="paint0_linear_3803_30" x1="80.4046" y1="-4.47428e-06" x2="0.0293886" y2="80.4046" gradientUnits="userSpaceOnUse">
<stop stop-color="#8B2AB2"/>
<stop offset="1" stop-color="#9146FF"/>
</linearGradient>
</defs>
</svg>
