<svg width="91" height="80" viewBox="0 0 91 80" fill="none" xmlns="http://www.w3.org/2000/svg">
<path d="M82.4611 8.29209C77.6224 3.50791 71.2315 0.609041 64.4416 0.118567C57.6516 -0.371907 50.9098 1.57831 45.4325 5.61732C39.6589 1.32699 32.4725 -0.618446 25.3206 0.172767C18.1687 0.96398 11.5825 4.43308 6.88825 9.88146C2.19404 15.3298 -0.259487 22.3528 0.0217606 29.5361C0.303009 36.7194 3.29814 43.5294 8.404 48.5949L35.6309 76.0225C38.1834 78.5694 41.6435 80 45.251 80C48.8586 80 52.3187 78.5694 54.8712 76.0225L82.0981 48.5949C84.7796 45.9774 86.9169 42.8564 88.3872 39.4111C89.8575 35.9657 90.6318 32.2641 90.6655 28.5189C90.6993 24.7736 89.9918 21.0587 88.5838 17.5875C87.1758 14.1163 85.095 10.9573 82.4611 8.29209V8.29209ZM76.0628 42.112L48.8359 69.3129C48.4141 69.7378 47.9122 70.0751 47.3592 70.3053C46.8062 70.5354 46.2131 70.6539 45.6141 70.6539C45.015 70.6539 44.4219 70.5354 43.8689 70.3053C43.3159 70.0751 42.8141 69.7378 42.3922 69.3129L15.1653 42.112C11.6066 38.4777 9.61383 33.5956 9.61383 28.5115C9.61383 23.4273 11.6066 18.5453 15.1653 14.911C18.7918 11.334 23.6827 9.3283 28.7788 9.3283C33.8749 9.3283 38.7658 11.334 42.3922 14.911C42.8141 15.3359 43.3159 15.6732 43.8689 15.9033C44.4219 16.1335 45.015 16.252 45.6141 16.252C46.2131 16.252 46.8062 16.1335 47.3592 15.9033C47.9122 15.6732 48.4141 15.3359 48.8359 14.911C52.5604 11.9501 57.2454 10.4624 61.9975 10.7315C66.7497 11.0007 71.2364 13.0079 74.602 16.3703C77.9677 19.7328 79.9768 24.2152 80.2462 28.9628C80.5156 33.7104 79.0265 38.391 76.0628 42.112V42.112Z" fill="url(#paint0_linear_3799_11)"/>
<defs>
<linearGradient id="paint0_linear_3799_11" x1="91" y1="-1.1597e-06" x2="9.33232e-08" y2="80" gradientUnits="userSpaceOnUse">
<stop stop-color="#8B2AB2"/>
<stop offset="1" stop-color="#9146FF"/>
</linearGradient>
</defs>
</svg>
