<svg width="80" height="80" viewBox="0 0 80 80" fill="none" xmlns="http://www.w3.org/2000/svg">
<path d="M60.2391 80H12.0478C8.85254 80 5.78813 78.7307 3.52872 76.4713C1.26932 74.2119 0 71.1475 0 67.9522V27.7928C0 24.5975 1.26932 21.5331 3.52872 19.2737C5.78813 17.0143 8.85254 15.745 12.0478 15.745H16.0638C16.1313 12.342 17.278 9.04847 19.3384 6.33936C21.3988 3.63025 24.2665 1.6456 27.5278 0.671678C30.7891 -0.302246 34.2755 -0.21511 37.4841 0.920517C40.6926 2.05614 43.4576 4.18156 45.3801 6.99022C47.181 9.557 48.1612 12.6096 48.1913 15.745H60.2391C61.3042 15.745 62.3257 16.1681 63.0788 16.9212C63.8319 17.6743 64.255 18.6958 64.255 19.7609V31.8087C67.658 31.8763 70.9515 33.023 73.6606 35.0834C76.3698 37.1438 78.3544 40.0115 79.3283 43.2728C80.3022 46.5341 80.2151 50.0205 79.0795 53.229C77.9439 56.4376 75.8184 59.2026 73.0098 61.1251C70.443 62.926 67.3904 63.9062 64.255 63.9362V63.9362V75.9841C64.255 77.0492 63.8319 78.0706 63.0788 78.8238C62.3257 79.5769 61.3042 80 60.2391 80ZM12.0478 23.7768C10.9827 23.7768 9.96126 24.2 9.20812 24.9531C8.45499 25.7062 8.03188 26.7277 8.03188 27.7928V67.9522C8.03188 69.0173 8.45499 70.0387 9.20812 70.7919C9.96126 71.545 10.9827 71.9681 12.0478 71.9681H56.2231V59.1974C56.2197 58.5535 56.3711 57.9182 56.6647 57.3451C56.9582 56.772 57.3853 56.2778 57.9098 55.9044C58.4328 55.5314 59.0377 55.2894 59.6736 55.1985C60.3094 55.1077 60.9578 55.1707 61.5643 55.3823C62.7089 55.8492 63.9553 56.0096 65.1808 55.8476C66.4062 55.6856 67.5682 55.2069 68.5521 54.4586C69.5314 53.8614 70.3714 53.0614 71.0156 52.1124C71.6598 51.1634 72.0933 50.0874 72.2869 48.9568C72.4418 47.8165 72.3498 46.6562 72.0172 45.5546C71.6847 44.4529 71.1192 43.4356 70.3593 42.5714C69.3314 41.3229 67.9317 40.4353 66.3642 40.038C64.7966 39.6407 63.1431 39.7545 61.6447 40.3627C61.0382 40.5743 60.3898 40.6373 59.7539 40.5464C59.118 40.4556 58.5132 40.2136 57.9902 39.8406C57.4656 39.4671 57.0385 38.973 56.745 38.3999C56.4514 37.8268 56.3 37.1915 56.3035 36.5475V23.7768H43.4525C42.7924 23.8143 42.1334 23.6881 41.5338 23.4097C40.9342 23.1313 40.4127 22.7091 40.0154 22.1808C39.6181 21.6524 39.3574 21.0341 39.2564 20.3808C39.1554 19.7275 39.2173 19.0593 39.4365 18.4356C39.9034 17.2911 40.0638 16.0447 39.9018 14.8192C39.7398 13.5938 39.2611 12.4318 38.5129 11.4479C37.9199 10.4406 37.1079 9.57957 36.137 8.92869C35.1661 8.27781 34.0612 7.85373 32.9041 7.68789C31.7471 7.52204 30.5675 7.61868 29.4529 7.97063C28.3382 8.32258 27.3171 8.92084 26.465 9.72106C25.6738 10.5058 25.0545 11.4467 24.6466 12.4838C24.2387 13.5208 24.0511 14.6314 24.0956 15.745C24.1049 16.6661 24.2818 17.5779 24.6177 18.4356C24.83 19.0429 24.8933 19.6923 24.8023 20.3292C24.7113 20.966 24.4686 21.5717 24.0947 22.0952C23.7207 22.6187 23.2265 23.0447 22.6536 23.3373C22.0807 23.63 21.4459 23.7807 20.8026 23.7768H12.0478Z" fill="url(#paint0_linear_3803_27)"/>
<defs>
<linearGradient id="paint0_linear_3803_27" x1="80" y1="0" x2="0" y2="80" gradientUnits="userSpaceOnUse">
<stop stop-color="#8B2AB2"/>
<stop offset="1" stop-color="#9146FF"/>
</linearGradient>
</defs>
</svg>
