<svg width="80" height="80" viewBox="0 0 80 80" fill="none" xmlns="http://www.w3.org/2000/svg">
<path d="M29.9941 34.0091H39.9921C41.0527 34.0091 42.07 33.5878 42.8199 32.8378C43.5699 32.0878 43.9913 31.0706 43.9913 30.0099C43.9913 28.9493 43.5699 27.9321 42.8199 27.1821C42.07 26.4321 41.0527 26.0107 39.9921 26.0107H35.9929V24.0111C35.9929 22.9505 35.5715 21.9333 34.8215 21.1833C34.0715 20.4333 33.0543 20.0119 31.9937 20.0119C30.933 20.0119 29.9158 20.4333 29.1658 21.1833C28.4158 21.9333 27.9945 22.9505 27.9945 24.0111V26.2107C25.5646 26.7041 23.4048 28.0827 21.9343 30.079C20.4638 32.0752 19.7875 34.5467 20.0366 37.0135C20.2858 39.4804 21.4427 41.7667 23.2827 43.4285C25.1228 45.0904 27.5147 46.0092 29.9941 46.0068H33.9933C34.5236 46.0068 35.0322 46.2174 35.4072 46.5924C35.7822 46.9674 35.9929 47.476 35.9929 48.0064C35.9929 48.5367 35.7822 49.0453 35.4072 49.4203C35.0322 49.7953 34.5236 50.006 33.9933 50.006H23.9953C22.9346 50.006 21.9174 50.4273 21.1674 51.1773C20.4174 51.9273 19.9961 52.9445 19.9961 54.0052C19.9961 55.0658 20.4174 56.083 21.1674 56.833C21.9174 57.583 22.9346 58.0044 23.9953 58.0044H27.9945V60.004C27.9945 61.0646 28.4158 62.0818 29.1658 62.8318C29.9158 63.5818 30.933 64.0032 31.9937 64.0032C33.0543 64.0032 34.0715 63.5818 34.8215 62.8318C35.5715 62.0818 35.9929 61.0646 35.9929 60.004V57.8044C38.4227 57.311 40.5825 55.9324 42.053 53.9361C43.5236 51.9399 44.1999 49.4684 43.9507 47.0016C43.7015 44.5347 42.5446 42.2484 40.7046 40.5866C38.8646 38.9247 36.4727 38.0059 33.9933 38.0083H29.9941C29.4637 38.0083 28.9551 37.7977 28.5801 37.4227C28.2051 37.0477 27.9945 36.5391 27.9945 36.0087C27.9945 35.4784 28.2051 34.9698 28.5801 34.5948C28.9551 34.2198 29.4637 34.0091 29.9941 34.0091ZM75.9849 40.0079H63.9873V4.0151C63.9901 3.3104 63.8067 2.61747 63.4555 2.00648C63.1044 1.39549 62.598 0.888139 61.9877 0.535792C61.3798 0.184789 60.6901 0 59.9881 0C59.2861 0 58.5965 0.184789 57.9885 0.535792L45.9909 7.41442L33.9933 0.535792C33.3853 0.184789 32.6957 0 31.9937 0C31.2917 0 30.602 0.184789 29.9941 0.535792L17.9965 7.41442L5.99884 0.535792C5.39088 0.184789 4.70124 0 3.99924 0C3.29723 0 2.60759 0.184789 1.99963 0.535792C1.38934 0.888139 0.882982 1.39549 0.531839 2.00648C0.180695 2.61747 -0.00276619 3.3104 3.15253e-05 4.0151V68.0024C3.15253e-05 71.1843 1.26406 74.236 3.51405 76.486C5.76404 78.736 8.81568 80 11.9976 80H67.9865C71.1685 80 74.2201 78.736 76.4701 76.486C78.7201 74.236 79.9841 71.1843 79.9841 68.0024V44.0072C79.9841 42.9465 79.5628 41.9293 78.8128 41.1793C78.0628 40.4293 77.0456 40.0079 75.9849 40.0079ZM11.9976 72.0016C10.937 72.0016 9.91978 71.5802 9.16978 70.8303C8.41979 70.0803 7.99844 69.063 7.99844 68.0024V10.9337L15.9969 15.4928C16.6141 15.8152 17.3001 15.9836 17.9965 15.9836C18.6928 15.9836 19.3788 15.8152 19.9961 15.4928L31.9937 8.61419L43.9913 15.4928C44.6085 15.8152 45.2945 15.9836 45.9909 15.9836C46.6872 15.9836 47.3733 15.8152 47.9905 15.4928L55.9889 10.9337V68.0024C55.9997 69.3667 56.2432 70.7191 56.7088 72.0016H11.9976ZM71.9857 68.0024C71.9857 69.063 71.5644 70.0803 70.8144 70.8303C70.0644 71.5802 69.0472 72.0016 67.9865 72.0016C66.9259 72.0016 65.9086 71.5802 65.1587 70.8303C64.4087 70.0803 63.9873 69.063 63.9873 68.0024V48.0064H71.9857V68.0024Z" fill="url(#paint0_linear_3803_31)"/>
<defs>
<linearGradient id="paint0_linear_3803_31" x1="80" y1="8.10724e-07" x2="3.67231e-06" y2="80" gradientUnits="userSpaceOnUse">
<stop stop-color="#8B2AB2"/>
<stop offset="1" stop-color="#9146FF"/>
</linearGradient>
</defs>
</svg>
