<svg width="80" height="80" viewBox="0 0 80 80" fill="none" xmlns="http://www.w3.org/2000/svg">
<path d="M40 36C38.9391 36 37.9217 36.4214 37.1716 37.1716C36.4214 37.9217 36 38.9391 36 40V56C36 57.0608 36.4214 58.0783 37.1716 58.8284C37.9217 59.5786 38.9391 60 40 60C41.0609 60 42.0783 59.5786 42.8284 58.8284C43.5786 58.0783 44 57.0608 44 56V40C44 38.9391 43.5786 37.9217 42.8284 37.1716C42.0783 36.4214 41.0609 36 40 36ZM41.52 20.32C40.5462 19.9199 39.4539 19.9199 38.48 20.32C37.989 20.5104 37.5404 20.7958 37.16 21.16C36.8067 21.5488 36.5226 21.9953 36.32 22.48C36.0961 22.9547 35.9865 23.4753 36 24C35.997 24.5264 36.0979 25.0483 36.2969 25.5356C36.496 26.023 36.7893 26.4662 37.16 26.84C37.5488 27.1933 37.9953 27.4774 38.48 27.68C39.086 27.929 39.7439 28.0253 40.3958 27.9604C41.0477 27.8956 41.6737 27.6717 42.2189 27.3083C42.764 26.9449 43.2115 26.4531 43.522 25.8763C43.8326 25.2994 43.9967 24.6551 44 24C43.9853 22.9409 43.5709 21.9265 42.84 21.16C42.4596 20.7958 42.011 20.5104 41.52 20.32ZM40 0C32.0888 0 24.3552 2.34596 17.7772 6.74121C11.1992 11.1365 6.07234 17.3836 3.04484 24.6927C0.0173314 32.0017 -0.774802 40.0444 0.768607 47.8036C2.31202 55.5628 6.12164 62.6902 11.7157 68.2843C17.3098 73.8783 24.4372 77.688 32.1964 79.2314C39.9556 80.7748 47.9983 79.9827 55.3073 76.9552C62.6164 73.9277 68.8635 68.8008 73.2588 62.2228C77.654 55.6448 80 47.9112 80 40C80 34.7471 78.9654 29.5457 76.9552 24.6927C74.945 19.8396 71.9986 15.4301 68.2843 11.7157C64.5699 8.00138 60.1604 5.05501 55.3073 3.04482C50.4543 1.03463 45.2529 0 40 0V0ZM40 72C33.671 72 27.4841 70.1232 22.2218 66.607C16.9594 63.0908 12.8579 58.0931 10.4359 52.2459C8.01387 46.3986 7.38016 39.9645 8.61489 33.7571C9.84961 27.5497 12.8973 21.8479 17.3726 17.3726C21.8479 12.8973 27.5497 9.8496 33.7571 8.61487C39.9645 7.38014 46.3986 8.01385 52.2459 10.4359C58.0931 12.8579 63.0908 16.9594 66.607 22.2217C70.1232 27.4841 72 33.671 72 40C72 48.4869 68.6286 56.6262 62.6274 62.6274C56.6263 68.6286 48.4869 72 40 72V72Z" fill="url(#paint0_linear_3803_28)"/>
<defs>
<linearGradient id="paint0_linear_3803_28" x1="80" y1="-4.76837e-06" x2="-2.86102e-06" y2="80" gradientUnits="userSpaceOnUse">
<stop stop-color="#8B2AB2"/>
<stop offset="0.9999" stop-color="#9146FF"/>
<stop offset="1" stop-color="#9146FF"/>
</linearGradient>
</defs>
</svg>
