<svg width="394" height="462" viewBox="0 0 394 462" fill="none" xmlns="http://www.w3.org/2000/svg">
<path d="M192.799 10.6913C194.523 9.63876 196.69 9.63876 198.413 10.6913L367.899 114.221C371.348 116.328 371.33 121.34 367.867 123.422L198.381 225.293C196.674 226.319 194.54 226.319 192.833 225.293L23.3472 123.422C19.8835 121.34 19.8655 116.328 23.3142 114.221L192.799 10.6913Z" fill="url(#paint0_linear_3821_25)"/>
<path d="M0 144.736C0 140.566 4.53854 137.982 8.12653 140.107L179.479 241.599C181.114 242.568 182.117 244.327 182.117 246.227V452.12C182.117 456.289 177.579 458.873 173.991 456.748L2.63851 355.257C1.00295 354.287 0 352.528 0 350.628V144.736Z" fill="url(#paint1_linear_3821_25)"/>
<path d="M393.462 144.736C393.462 140.566 388.923 137.982 385.335 140.107L213.984 241.595C212.348 242.563 211.345 244.324 211.345 246.224V452.109C211.345 456.277 215.884 458.861 219.472 456.736L390.823 355.248C392.458 354.28 393.462 352.521 393.462 350.62V144.736Z" fill="url(#paint2_linear_3821_25)"/>
<path d="M131.792 245.729L161.475 260.255V423.803L129.533 403.359L131.792 245.729Z" fill="white"/>
<path d="M16.1475 182.246L43.06 197.848V357.092L16.1475 340.415V182.246Z" fill="white"/>
<path d="M43.0601 197.848L87.6935 266.71V309.211L23.1448 219.368L43.0601 197.848Z" fill="white"/>
<path d="M87.6936 266.71L131.792 245.729L155.555 266.71L87.6936 309.211V266.71Z" fill="white"/>
<path d="M238.984 254.812L366.011 176.867V212.912L249.749 284.464L238.984 254.812Z" fill="white"/>
<path d="M238.984 426.43V254.812L273.432 233.675V405.147L238.984 426.43Z" fill="white"/>
<path d="M249.749 386.682L366.011 310.825V347.947L238.984 426.43L249.749 386.682Z" fill="white"/>
<defs>
<linearGradient id="paint0_linear_3821_25" x1="285.541" y1="28.9587" x2="105.761" y2="208.827" gradientUnits="userSpaceOnUse">
<stop stop-color="#8B2AB2"/>
<stop offset="1" stop-color="#9146FF"/>
</linearGradient>
<linearGradient id="paint1_linear_3821_25" x1="91.0585" y1="135.294" x2="91.0585" y2="461.562" gradientUnits="userSpaceOnUse">
<stop stop-color="#8B2AB2"/>
<stop offset="1" stop-color="#9146FF"/>
</linearGradient>
<linearGradient id="paint2_linear_3821_25" x1="302.404" y1="135.294" x2="302.404" y2="461.55" gradientUnits="userSpaceOnUse">
<stop stop-color="#8B2AB2"/>
<stop offset="1" stop-color="#9146FF"/>
</linearGradient>
</defs>
</svg>
