<svg width="200" height="200" viewBox="0 0 200 200" fill="none" xmlns="http://www.w3.org/2000/svg">
<rect width="200" height="200" rx="100" fill="url(#paint0_linear_3793_10)"/>
<path d="M149.881 71.268C142.915 71.2678 136.233 68.5002 131.307 63.5741C126.381 58.6479 123.614 51.9667 123.614 45.0001H104.848V118.487C104.844 121.838 103.786 125.102 101.824 127.817C99.8614 130.533 97.0941 132.562 93.9141 133.617C90.734 134.672 87.3026 134.7 84.1062 133.695C80.9098 132.691 78.1104 130.707 76.105 128.023C74.0995 125.339 72.9897 122.092 72.9327 118.742C72.8757 115.392 73.8746 112.109 75.7876 109.358C77.7007 106.608 80.431 104.529 83.5914 103.417C86.7519 102.305 90.1822 102.215 93.3962 103.162V84.9187C86.5658 83.9977 79.617 85.1824 73.4776 88.3146C67.3383 91.4468 62.3006 96.3774 59.0372 102.448C55.7739 108.519 54.4402 115.441 55.2143 122.289C55.9885 129.138 58.8335 135.587 63.3696 140.776C67.9056 145.965 73.9168 149.647 80.6004 151.33C87.2841 153.013 94.322 152.616 100.774 150.194C107.227 147.772 112.787 143.438 116.712 137.773C120.637 132.107 122.74 125.379 122.74 118.487L123.288 81.3418C130.998 87.0022 140.318 90.0479 149.883 90.0336L149.881 71.268Z" fill="white"/>
<defs>
<linearGradient id="paint0_linear_3793_10" x1="200" y1="5.96046e-06" x2="7.24502e-06" y2="190.5" gradientUnits="userSpaceOnUse">
<stop stop-color="#8B2AB2"/>
<stop offset="1" stop-color="#9146FF"/>
</linearGradient>
</defs>
</svg>
