<svg width="65" height="80" viewBox="0 0 65 80" fill="none" xmlns="http://www.w3.org/2000/svg">
<path d="M62.5396 6.59549C62.0747 6.21945 61.5315 5.95238 60.9499 5.81389C60.3683 5.67541 59.763 5.66903 59.1785 5.79524C54.903 6.69129 50.4892 6.70271 46.209 5.82878C41.9288 4.95485 37.8729 3.21408 34.2908 0.713645C33.621 0.24899 32.8252 0 32.01 0C31.1949 0 30.3991 0.24899 29.7293 0.713645C26.1472 3.21408 22.0912 4.95485 17.8111 5.82878C13.5309 6.70271 9.11713 6.69129 4.84154 5.79524C4.25711 5.66903 3.65183 5.67541 3.07019 5.81389C2.48855 5.95238 1.94533 6.21945 1.48049 6.59549C1.01626 6.97208 0.642308 7.4479 0.386113 7.98798C0.129918 8.52807 -0.00200939 9.1187 2.31332e-05 9.71646V39.5258C-0.00353412 45.2626 1.36354 50.9172 3.98741 56.0188C6.61128 61.1204 10.416 65.5213 15.0847 68.855L29.6893 79.2582C30.367 79.7407 31.1782 80 32.01 80C32.8419 80 33.6531 79.7407 34.3308 79.2582L48.9353 68.855C53.6041 65.5213 57.4088 61.1204 60.0327 56.0188C62.6565 50.9172 64.0236 45.2626 64.0201 39.5258V9.71646C64.0221 9.1187 63.8902 8.52807 63.634 7.98798C63.3778 7.4479 63.0038 6.97208 62.5396 6.59549ZM56.0176 39.5258C56.0206 43.9862 54.9584 48.3829 52.9192 52.3499C50.88 56.3169 47.9229 59.7395 44.2939 62.3329L32.01 71.0957L19.7262 62.3329C16.0972 59.7395 13.1401 56.3169 11.1009 52.3499C9.06171 48.3829 7.99946 43.9862 8.00253 39.5258V14.3179C16.3909 15.0359 24.7919 13.0896 32.01 8.75616C39.2281 13.0896 47.6292 15.0359 56.0176 14.3179V39.5258ZM38.172 30.3629L27.4086 41.1663L23.8475 37.5652C23.094 36.8117 22.0721 36.3884 21.0066 36.3884C19.9411 36.3884 18.9192 36.8117 18.1657 37.5652C17.4123 38.3186 16.989 39.3405 16.989 40.4061C16.989 41.4716 17.4123 42.4935 18.1657 43.247L24.5677 49.649C24.9397 50.024 25.3822 50.3217 25.8698 50.5248C26.3574 50.7279 26.8804 50.8325 27.4086 50.8325C27.9368 50.8325 28.4598 50.7279 28.9474 50.5248C29.435 50.3217 29.8775 50.024 30.2495 49.649L44.0138 36.0047C44.7672 35.2512 45.1905 34.2293 45.1905 33.1638C45.1905 32.0983 44.7672 31.0764 44.0138 30.3229C43.2603 29.5695 42.2384 29.1462 41.1729 29.1462C40.1074 29.1462 39.0855 29.5695 38.332 30.3229L38.172 30.3629Z" fill="url(#paint0_linear_3801_18)"/>
<defs>
<linearGradient id="paint0_linear_3801_18" x1="64" y1="3.50886e-06" x2="3.71738e-06" y2="80" gradientUnits="userSpaceOnUse">
<stop stop-color="#8B2AB2"/>
<stop offset="1" stop-color="#9146FF"/>
</linearGradient>
</defs>
</svg>
