<svg width="58" height="80" viewBox="0 0 58 80" fill="none" xmlns="http://www.w3.org/2000/svg">
<path d="M28.9524 50.9091C32.7917 50.9091 36.4738 49.3766 39.1886 46.6488C41.9034 43.921 43.4286 40.2213 43.4286 36.3636V14.5455C43.4286 10.6878 41.9034 6.98807 39.1886 4.26027C36.4738 1.53246 32.7917 0 28.9524 0C25.1131 0 21.431 1.53246 18.7162 4.26027C16.0014 6.98807 14.4762 10.6878 14.4762 14.5455V36.3636C14.4762 40.2213 16.0014 43.921 18.7162 46.6488C21.431 49.3766 25.1131 50.9091 28.9524 50.9091ZM21.7143 14.5455C21.7143 12.6166 22.4769 10.7668 23.8343 9.40286C25.1917 8.03896 27.0327 7.27273 28.9524 7.27273C30.872 7.27273 32.7131 8.03896 34.0705 9.40286C35.4279 10.7668 36.1905 12.6166 36.1905 14.5455V36.3636C36.1905 38.2925 35.4279 40.1423 34.0705 41.5062C32.7131 42.8701 30.872 43.6364 28.9524 43.6364C27.0327 43.6364 25.1917 42.8701 23.8343 41.5062C22.4769 40.1423 21.7143 38.2925 21.7143 36.3636V14.5455ZM57.9048 36.3636C57.9048 35.3992 57.5235 34.4743 56.8448 33.7923C56.1661 33.1104 55.2455 32.7273 54.2857 32.7273C53.3259 32.7273 52.4054 33.1104 51.7267 33.7923C51.048 34.4743 50.6667 35.3992 50.6667 36.3636C50.6667 42.1502 48.3789 47.6997 44.3067 51.7914C40.2345 55.8831 34.7114 58.1818 28.9524 58.1818C23.1934 58.1818 17.6703 55.8831 13.5981 51.7914C9.52585 47.6997 7.2381 42.1502 7.2381 36.3636C7.2381 35.3992 6.8568 34.4743 6.1781 33.7923C5.4994 33.1104 4.57888 32.7273 3.61905 32.7273C2.65922 32.7273 1.7387 33.1104 1.06 33.7923C0.381292 34.4743 0 35.3992 0 36.3636C0.00639049 43.4447 2.58299 50.2803 7.24677 55.589C11.9106 60.8977 18.3413 64.3149 25.3333 65.2V72.7273H18.0952C17.1354 72.7273 16.2149 73.1104 15.5362 73.7923C14.8575 74.4743 14.4762 75.3992 14.4762 76.3636C14.4762 77.3281 14.8575 78.253 15.5362 78.9349C16.2149 79.6169 17.1354 80 18.0952 80H39.8095C40.7694 80 41.6899 79.6169 42.3686 78.9349C43.0473 78.253 43.4286 77.3281 43.4286 76.3636C43.4286 75.3992 43.0473 74.4743 42.3686 73.7923C41.6899 73.1104 40.7694 72.7273 39.8095 72.7273H32.5714V65.2C39.5635 64.3149 45.9942 60.8977 50.658 55.589C55.3218 50.2803 57.8984 43.4447 57.9048 36.3636V36.3636Z" fill="url(#paint0_linear_3801_17)"/>
<defs>
<linearGradient id="paint0_linear_3801_17" x1="58" y1="8.43688e-08" x2="-8.46723e-08" y2="72.5" gradientUnits="userSpaceOnUse">
<stop stop-color="#8B2AB2"/>
<stop offset="1" stop-color="#9146FF"/>
</linearGradient>
</defs>
</svg>
