<svg width="77" height="80" viewBox="0 0 77 80" fill="none" xmlns="http://www.w3.org/2000/svg">
<path d="M35.9896 71.9791H11.9965C10.936 71.9791 9.91884 71.5578 9.16892 70.8079C8.41899 70.058 7.99768 69.0408 7.99768 67.9803V11.9965C7.99768 10.936 8.41899 9.91884 9.16892 9.16892C9.91884 8.41899 10.936 7.99768 11.9965 7.99768H31.9907V19.9942C31.9907 23.1759 33.2546 26.2272 35.5044 28.477C37.7542 30.7268 40.8056 31.9907 43.9872 31.9907H55.9838V51.9849C55.9838 53.0455 56.4051 54.0626 57.155 54.8125C57.9049 55.5625 58.9221 55.9838 59.9826 55.9838C61.0432 55.9838 62.0603 55.5625 62.8102 54.8125C63.5601 54.0626 63.9814 53.0455 63.9814 51.9849V27.9919C63.9814 27.9919 63.9814 27.9919 63.9814 27.752C63.9398 27.3846 63.8594 27.0227 63.7415 26.6723V26.3124C63.5493 25.9012 63.2928 25.5233 62.9817 25.1927V25.1927L38.9887 1.19965C38.6581 0.888607 38.2802 0.632141 37.869 0.439872C37.7367 0.416717 37.6014 0.416717 37.4691 0.439872C37.0803 0.231945 36.6624 0.0836637 36.2295 0H11.9965C8.81485 0 5.76348 1.26392 3.5137 3.5137C1.26392 5.76348 0 8.81485 0 11.9965V67.9803C0 71.162 1.26392 74.2133 3.5137 76.4631C5.76348 78.7129 8.81485 79.9768 11.9965 79.9768H35.9896C37.0501 79.9768 38.0672 79.5555 38.8172 78.8056C39.5671 78.0557 39.9884 77.0385 39.9884 75.978C39.9884 74.9174 39.5671 73.9003 38.8172 73.1504C38.0672 72.4004 37.0501 71.9791 35.9896 71.9791ZM39.9884 13.636L50.3454 23.993H43.9872C42.9267 23.993 41.9096 23.5717 41.1596 22.8218C40.4097 22.0719 39.9884 21.0548 39.9884 19.9942V13.636ZM19.9942 47.9861H43.9872C45.0478 47.9861 46.0649 47.5648 46.8149 46.8149C47.5648 46.0649 47.9861 45.0478 47.9861 43.9872C47.9861 42.9267 47.5648 41.9096 46.8149 41.1596C46.0649 40.4097 45.0478 39.9884 43.9872 39.9884H19.9942C18.9336 39.9884 17.9165 40.4097 17.1666 41.1596C16.4167 41.9096 15.9954 42.9267 15.9954 43.9872C15.9954 45.0478 16.4167 46.0649 17.1666 46.8149C17.9165 47.5648 18.9336 47.9861 19.9942 47.9861ZM35.9896 55.9838H19.9942C18.9336 55.9838 17.9165 56.4051 17.1666 57.155C16.4167 57.9049 15.9954 58.9221 15.9954 59.9826C15.9954 61.0432 16.4167 62.0603 17.1666 62.8102C17.9165 63.5601 18.9336 63.9814 19.9942 63.9814H35.9896C37.0501 63.9814 38.0672 63.5601 38.8172 62.8102C39.5671 62.0603 39.9884 61.0432 39.9884 59.9826C39.9884 58.9221 39.5671 57.9049 38.8172 57.155C38.0672 56.4051 37.0501 55.9838 35.9896 55.9838ZM19.9942 31.9907H23.993C25.0536 31.9907 26.0707 31.5694 26.8206 30.8195C27.5706 30.0696 27.9919 29.0524 27.9919 27.9919C27.9919 26.9313 27.5706 25.9142 26.8206 25.1643C26.0707 24.4143 25.0536 23.993 23.993 23.993H19.9942C18.9336 23.993 17.9165 24.4143 17.1666 25.1643C16.4167 25.9142 15.9954 26.9313 15.9954 27.9919C15.9954 29.0524 16.4167 30.0696 17.1666 30.8195C17.9165 31.5694 18.9336 31.9907 19.9942 31.9907ZM74.8183 57.1434C74.4466 56.7686 74.0043 56.4711 73.517 56.2681C73.0297 56.0651 72.507 55.9606 71.9791 55.9606C71.4512 55.9606 70.9286 56.0651 70.4413 56.2681C69.954 56.4711 69.5117 56.7686 69.14 57.1434L55.9838 70.3396L50.8253 65.1411C50.4524 64.7683 50.0098 64.4725 49.5226 64.2707C49.0355 64.0689 48.5134 63.9651 47.9861 63.9651C47.4588 63.9651 46.9367 64.0689 46.4495 64.2707C45.9624 64.4725 45.5198 64.7683 45.1469 65.1411C44.7741 65.514 44.4783 65.9566 44.2765 66.4437C44.0747 66.9309 43.9709 67.453 43.9709 67.9803C43.9709 68.5076 44.0747 69.0297 44.2765 69.5168C44.4783 70.004 44.7741 70.4466 45.1469 70.8195L53.1446 78.8171C53.5163 79.1919 53.9586 79.4894 54.4459 79.6925C54.9332 79.8955 55.4559 80 55.9838 80C56.5117 80 57.0343 79.8955 57.5216 79.6925C58.0089 79.4894 58.4512 79.1919 58.8229 78.8171L74.8183 62.8218C75.1931 62.45 75.4906 62.0078 75.6936 61.5205C75.8966 61.0332 76.0012 60.5105 76.0012 59.9826C76.0012 59.4547 75.8966 58.932 75.6936 58.4447C75.4906 57.9575 75.1931 57.5152 74.8183 57.1434V57.1434Z" fill="url(#paint0_linear_3803_32)"/>
<defs>
<linearGradient id="paint0_linear_3803_32" x1="76" y1="3.01161e-07" x2="1.04016e-05" y2="80" gradientUnits="userSpaceOnUse">
<stop stop-color="#8B2AB2"/>
<stop offset="1" stop-color="#9146FF"/>
</linearGradient>
</defs>
</svg>
