<svg width="80" height="80" viewBox="0 0 80 80" fill="none" xmlns="http://www.w3.org/2000/svg">
<path d="M48 28H32C30.9391 28 29.9217 28.4214 29.1716 29.1716C28.4214 29.9217 28 30.9391 28 32V48C28 49.0609 28.4214 50.0783 29.1716 50.8284C29.9217 51.5786 30.9391 52 32 52H48C49.0609 52 50.0783 51.5786 50.8284 50.8284C51.5786 50.0783 52 49.0609 52 48V32C52 30.9391 51.5786 29.9217 50.8284 29.1716C50.0783 28.4214 49.0609 28 48 28ZM44 44H36V36H44V44ZM76 44C77.0609 44 78.0783 43.5786 78.8284 42.8284C79.5786 42.0783 80 41.0609 80 40C80 38.9391 79.5786 37.9217 78.8284 37.1716C78.0783 36.4214 77.0609 36 76 36H68V28H76C77.0609 28 78.0783 27.5786 78.8284 26.8284C79.5786 26.0783 80 25.0609 80 24C80 22.9391 79.5786 21.9217 78.8284 21.1716C78.0783 20.4214 77.0609 20 76 20H67.28C66.6827 18.3224 65.7196 16.7988 64.4604 15.5396C63.2012 14.2804 61.6776 13.3173 60 12.72V4C60 2.93913 59.5786 1.92172 58.8284 1.17157C58.0783 0.421427 57.0609 0 56 0C54.9391 0 53.9217 0.421427 53.1716 1.17157C52.4214 1.92172 52 2.93913 52 4V12H44V4C44 2.93913 43.5786 1.92172 42.8284 1.17157C42.0783 0.421427 41.0609 0 40 0C38.9391 0 37.9217 0.421427 37.1716 1.17157C36.4214 1.92172 36 2.93913 36 4V12H28V4C28 2.93913 27.5786 1.92172 26.8284 1.17157C26.0783 0.421427 25.0609 0 24 0C22.9391 0 21.9217 0.421427 21.1716 1.17157C20.4214 1.92172 20 2.93913 20 4V12.72C18.3224 13.3173 16.7988 14.2804 15.5396 15.5396C14.2804 16.7988 13.3173 18.3224 12.72 20H4C2.93913 20 1.92172 20.4214 1.17157 21.1716C0.421427 21.9217 0 22.9391 0 24C0 25.0609 0.421427 26.0783 1.17157 26.8284C1.92172 27.5786 2.93913 28 4 28H12V36H4C2.93913 36 1.92172 36.4214 1.17157 37.1716C0.421427 37.9217 0 38.9391 0 40C0 41.0609 0.421427 42.0783 1.17157 42.8284C1.92172 43.5786 2.93913 44 4 44H12V52H4C2.93913 52 1.92172 52.4214 1.17157 53.1716C0.421427 53.9217 0 54.9391 0 56C0 57.0609 0.421427 58.0783 1.17157 58.8284C1.92172 59.5786 2.93913 60 4 60H12.72C13.3173 61.6776 14.2804 63.2012 15.5396 64.4604C16.7988 65.7196 18.3224 66.6827 20 67.28V76C20 77.0609 20.4214 78.0783 21.1716 78.8284C21.9217 79.5786 22.9391 80 24 80C25.0609 80 26.0783 79.5786 26.8284 78.8284C27.5786 78.0783 28 77.0609 28 76V68H36V76C36 77.0609 36.4214 78.0783 37.1716 78.8284C37.9217 79.5786 38.9391 80 40 80C41.0609 80 42.0783 79.5786 42.8284 78.8284C43.5786 78.0783 44 77.0609 44 76V68H52V76C52 77.0609 52.4214 78.0783 53.1716 78.8284C53.9217 79.5786 54.9391 80 56 80C57.0609 80 58.0783 79.5786 58.8284 78.8284C59.5786 78.0783 60 77.0609 60 76V67.28C61.6776 66.6827 63.2012 65.7196 64.4604 64.4604C65.7196 63.2012 66.6827 61.6776 67.28 60H76C77.0609 60 78.0783 59.5786 78.8284 58.8284C79.5786 58.0783 80 57.0609 80 56C80 54.9391 79.5786 53.9217 78.8284 53.1716C78.0783 52.4214 77.0609 52 76 52H68V44H76ZM60 56C60 57.0609 59.5786 58.0783 58.8284 58.8284C58.0783 59.5786 57.0609 60 56 60H24C22.9391 60 21.9217 59.5786 21.1716 58.8284C20.4214 58.0783 20 57.0609 20 56V24C20 22.9391 20.4214 21.9217 21.1716 21.1716C21.9217 20.4214 22.9391 20 24 20H56C57.0609 20 58.0783 20.4214 58.8284 21.1716C59.5786 21.9217 60 22.9391 60 24V56Z" fill="url(#paint0_linear_3801_16)"/>
<defs>
<linearGradient id="paint0_linear_3801_16" x1="80" y1="0" x2="0" y2="80" gradientUnits="userSpaceOnUse">
<stop stop-color="#8B2AB2"/>
<stop offset="1" stop-color="#9146FF"/>
</linearGradient>
</defs>
</svg>
