<svg width="200" height="200" viewBox="0 0 200 200" fill="none" xmlns="http://www.w3.org/2000/svg">
<rect width="200" height="200" rx="100" fill="url(#paint0_linear_3793_9)"/>
<path d="M145.138 70.1333C136.881 63.7332 126.973 60.5334 116.514 60L114.862 61.6001C124.22 63.7332 132.477 67.9999 140.183 73.8666C130.826 69.0666 120.367 65.8667 109.358 64.8C106.055 64.2666 103.303 64.2666 100 64.2666C96.6974 64.2666 93.9449 64.2666 90.6423 64.8C79.633 65.8667 69.1742 69.0666 59.8165 73.8666C67.5228 67.9999 75.7799 63.7332 85.1376 61.6001L83.4861 60C73.0274 60.5334 63.1191 63.7332 54.8624 70.1333C45.5046 87.2002 40.5505 106.4 40 126.133C48.2568 134.667 59.8165 140 71.9267 140C71.9267 140 75.7799 135.733 78.532 132C71.3762 130.4 64.7706 126.666 60.367 120.8C64.2201 122.933 68.0732 125.067 71.9267 126.666C76.8809 128.8 81.835 129.867 86.7891 130.933C91.1928 131.466 95.5964 132 100 132C104.404 132 108.807 131.466 113.211 130.933C118.165 129.867 123.119 128.8 128.073 126.666C131.927 125.067 135.78 122.933 139.633 120.8C135.229 126.666 128.624 130.4 121.468 132C124.22 135.733 128.073 140 128.073 140C140.184 140 151.743 134.667 160 126.133C159.45 106.4 154.495 87.2002 145.138 70.1333ZM81.835 116.533C76.3304 116.533 71.3763 111.733 71.3763 105.867C71.3763 100 76.3304 95.2 81.835 95.2C87.3396 95.2 92.2937 100 92.2937 105.867C92.2937 111.733 87.3396 116.533 81.835 116.533ZM118.165 116.533C112.66 116.533 107.706 111.733 107.706 105.867C107.706 100 112.66 95.2 118.165 95.2C123.67 95.2 128.624 100 128.624 105.867C128.624 111.733 123.67 116.533 118.165 116.533Z" fill="white"/>
<defs>
<linearGradient id="paint0_linear_3793_9" x1="207.5" y1="-1.05333e-06" x2="6.18398e-06" y2="200" gradientUnits="userSpaceOnUse">
<stop stop-color="#8B2AB2"/>
<stop offset="1" stop-color="#9146FF"/>
</linearGradient>
</defs>
</svg>
