<svg width="68" height="68" viewBox="0 0 68 68" fill="none" xmlns="http://www.w3.org/2000/svg">
<path d="M65.0001 27.6C64.0635 26.4755 62.8914 25.5703 61.5667 24.9482C60.242 24.3262 58.7969 24.0025 57.3334 24H42.1334L44.0001 19.2333C44.7765 17.1463 45.0351 14.902 44.7536 12.6931C44.4722 10.4841 43.659 8.37641 42.384 6.55075C41.109 4.72509 39.4102 3.23597 37.4332 2.21113C35.4563 1.18629 33.2602 0.656306 31.0334 0.666653C30.3922 0.66799 29.765 0.854237 29.227 1.20306C28.689 1.55189 28.263 2.04849 28.0001 2.63332L18.5001 24H10.6667C8.01458 24 5.47104 25.0536 3.59568 26.9289C1.72032 28.8043 0.666748 31.3478 0.666748 34V57.3333C0.666748 59.9855 1.72032 62.529 3.59568 64.4044C5.47104 66.2797 8.01458 67.3333 10.6667 67.3333H53.1001C55.4394 67.3325 57.7045 66.5116 59.5012 65.0134C61.2978 63.5152 62.5123 61.4345 62.9334 59.1333L67.1668 35.8C67.4286 34.3579 67.3702 32.8759 66.9958 31.4589C66.6214 30.0419 65.9401 28.7245 65.0001 27.6ZM17.3334 60.6666H10.6667C9.78269 60.6666 8.93485 60.3155 8.30973 59.6903C7.68461 59.0652 7.33342 58.2174 7.33342 57.3333V34C7.33342 33.1159 7.68461 32.2681 8.30973 31.643C8.93485 31.0178 9.78269 30.6667 10.6667 30.6667H17.3334V60.6666ZM60.6668 34.6L56.4334 57.9333C56.2914 58.7098 55.8785 59.4108 55.268 59.9113C54.6576 60.4119 53.8894 60.6795 53.1001 60.6666H24.0001V28.0333L33.0668 7.63332C34 7.9054 34.8668 8.36801 35.6123 8.99193C36.3578 9.61585 36.9658 10.3875 37.3981 11.2583C37.8303 12.129 38.0774 13.08 38.1236 14.051C38.1698 15.022 38.0143 15.9921 37.6668 16.9L35.9001 21.6667C35.5236 22.6742 35.3966 23.7578 35.5297 24.8251C35.6628 25.8924 36.0521 26.9116 36.6645 27.7958C37.2769 28.68 38.0941 29.4029 39.0464 29.9028C39.9987 30.4027 41.0579 30.6648 42.1334 30.6667H57.3334C57.8231 30.6659 58.307 30.773 58.7506 30.9804C59.1942 31.1878 59.5867 31.4904 59.9001 31.8667C60.2212 32.2377 60.4564 32.6751 60.5889 33.1476C60.7215 33.6201 60.748 34.116 60.6668 34.6Z" fill="url(#paint0_linear_3822_8)"/>
<defs>
<linearGradient id="paint0_linear_3822_8" x1="67" y1="-6.5" x2="1" y2="67" gradientUnits="userSpaceOnUse">
<stop stop-color="#8B2AB2"/>
<stop offset="1" stop-color="#9146FF"/>
</linearGradient>
</defs>
</svg>
