<svg width="14" height="12" viewBox="0 0 14 12" fill="none" xmlns="http://www.w3.org/2000/svg">
<path d="M0.211449 5.58184C1.64369 4.76537 3.24246 4.0839 4.73627 3.39897C7.3062 2.2771 9.88634 1.17468 12.4925 0.14833C12.9996 -0.0265385 13.9107 -0.197529 14 0.58015C13.9511 1.68099 13.7498 2.77539 13.6118 3.86978C13.2615 6.27646 12.8565 8.67489 12.4617 11.0736C12.3256 11.8727 11.3585 12.2863 10.7397 11.7749C9.2525 10.7353 7.75389 9.70577 6.28571 8.64202C5.80477 8.13626 6.25075 7.40994 6.68027 7.04877C7.90515 5.79946 9.20415 4.73804 10.365 3.42417C10.6782 2.64159 9.75292 3.30112 9.44774 3.50323C7.77087 4.69917 6.13504 5.96812 4.3671 7.0192C3.46403 7.53368 2.41149 7.09402 1.50884 6.80694C0.699512 6.46013 -0.486479 6.11072 0.211367 5.58194L0.211449 5.58184Z" fill="white"/>
</svg>
