<svg width="14" height="13" viewBox="0 0 14 13" fill="none" xmlns="http://www.w3.org/2000/svg">
<path d="M3.17807 4.22845H0.177264V12.9998H3.17807V4.22845Z" fill="white"/>
<path d="M3.3759 1.51507C3.35642 0.655047 2.72425 0 1.69769 0C0.671128 0 0 0.655047 0 1.51507C0 2.35728 0.651292 3.03119 1.65873 3.03119H1.67791C2.72425 3.03119 3.3759 2.35728 3.3759 1.51507Z" fill="white"/>
<path d="M14 7.97054C14 5.27636 12.5196 4.02245 10.5449 4.02245C8.9517 4.02245 8.23839 4.8738 7.84011 5.47104V4.22865H4.83894C4.87849 5.05171 4.83894 13 4.83894 13H7.84011V8.10136C7.84011 7.83921 7.85959 7.5777 7.93893 7.39001C8.15581 6.8663 8.64961 6.32408 9.47865 6.32408C10.565 6.32408 10.9992 7.12839 10.9992 8.30709V12.9998H13.9999L14 7.97054Z" fill="white"/>
</svg>
