<svg width="830" height="342" viewBox="0 0 830 342" fill="none" xmlns="http://www.w3.org/2000/svg">
<path d="M67.1673 342H267.179C284.323 342 300.818 335.433 313.281 323.646L403.511 238.305L439.419 306.231C451.053 328.236 473.884 342 498.752 342H707.358C737.749 342 764.351 321.559 772.205 292.167L786.946 237.01H700.664L695.48 259.5H507.769L477.987 203.6H795.872L827.681 84.5664C839.086 41.8898 806.958 0 762.833 0H562.326C545.216 0 528.751 6.54064 516.297 18.2861L424.358 104.99H544.477L568.671 82.5H741.424L726.533 138.4H389.006L260.903 259.5H86.4056L101.483 203.6H223.815C227.48 203.599 230.455 200.624 230.455 196.95V145.05C230.455 141.375 227.48 138.401 223.815 138.4H119.069L134.146 82.5H321.814L347.091 131.421L409.708 73.6875L390.066 36.0684C378.489 13.8967 355.565 0 330.575 0H123.679C93.4036 0.000139816 66.8732 20.2885 58.9124 49.5322L2.39972 257.131C-9.23709 299.88 22.9131 342 67.1673 342Z" fill="white"/>
</svg>
