<svg width="46" height="19" viewBox="0 0 46 19" fill="none" xmlns="http://www.w3.org/2000/svg">
<path d="M22.8451 4.18L21.7225 2.03963C21.065 0.785888 19.763 0 18.3435 0H15.9343H6.93199C5.21229 0 3.70542 1.14732 3.25329 2.80093L0.136293 14.2009C-0.524606 16.6181 1.30124 19 3.81499 19H14.8468C15.8206 19 16.7575 18.6286 17.4654 17.9621L22.3367 13.375L24.2494 16.9774C24.9102 18.2217 26.2069 19 27.6195 19H39.1253C40.8516 19 42.3625 17.844 42.8086 16.182L43.6587 13.015H38.6683L38.3824 14.25H28.183L26.6579 11.4H44.0921L45.8684 4.78198C46.5161 2.36887 44.6915 0 42.1851 0H31.1259C30.1541 0 29.2189 0.369893 28.5115 1.03409L23.2384 5.985H30.1847L31.5192 4.75H40.8607L40.0981 7.6H28.4696H21.5224L14.4568 14.25H5.02012L5.79222 11.4H12.455C12.7182 11.4 12.9316 11.1873 12.9316 10.925V8.075C12.9316 7.81267 12.7182 7.6 12.455 7.6H6.82169L7.59379 4.75H17.7931L19.2229 7.505L22.8451 4.18Z" fill="white"/>
</svg>
