<svg width="60" height="25" viewBox="0 0 60 25" fill="none" xmlns="http://www.w3.org/2000/svg">
<path d="M29.798 5.5L28.3337 2.68373C27.4761 1.03406 25.7778 0 23.9263 0H20.7839H9.04173C6.79863 0 4.83316 1.50963 4.24342 3.68544L0.177773 18.6854C-0.684269 21.8659 1.69728 25 4.97608 25H19.3654C20.6356 25 21.8577 24.5114 22.781 23.6344L29.1348 17.5987L31.6296 22.3386C32.4915 23.9759 34.1829 25 36.0254 25H51.033C53.2846 25 55.2554 23.479 55.8373 21.2921L56.9461 17.125H50.4369L50.0639 18.75H36.7604L34.7711 15H57.5114L59.8283 6.29208C60.6732 3.11694 58.2932 0 55.024 0H40.5991C39.3314 0 38.1116 0.486701 37.1889 1.36065L30.311 7.875H39.3714L41.1121 6.25H53.2966L52.3019 10H37.1343H28.0728L18.8567 18.75H6.54798L7.55507 15H16.2457C16.589 15 16.8674 14.7201 16.8674 14.375V10.625C16.8674 10.2798 16.589 10 16.2457 10H8.89785L9.90494 6.25H23.2084L25.0734 9.875L29.798 5.5Z" fill="#691DED"/>
</svg>
