<svg width="46" height="46" viewBox="0 0 46 46" fill="none" xmlns="http://www.w3.org/2000/svg">
<path d="M3.72253 33H14.8075C15.7577 33 16.6719 32.6352 17.3626 31.9804L22.3633 27.2391L24.3534 31.0129C24.9982 32.2354 26.2635 33 27.6418 33H39.203C40.8874 33 42.3617 31.8644 42.797 30.2315L43.6139 27.1672H38.8321L38.5447 28.4167H28.1415L26.4909 25.3111H44.1087L45.8716 18.6981C46.5036 16.3272 44.723 14 42.2776 14H31.1651C30.2169 14 29.3043 14.3634 28.6141 15.0159L23.5187 19.8328H30.1759L31.5168 18.5833H41.0911L40.2657 21.6889H21.5594L14.4597 28.4167H4.78875L5.62436 25.3111H12.4042C12.6073 25.3111 12.7722 25.1458 12.7723 24.9417V22.0583C12.7722 21.8542 12.6073 21.6889 12.4042 21.6889H6.599L7.4346 18.5833H17.8355L19.2364 21.3012L22.7068 18.0938L21.6181 16.0038C20.9765 14.772 19.7061 14 18.321 14H6.85451C5.1766 14 3.70623 15.1271 3.26503 16.7518L0.132997 28.285C-0.511936 30.66 1.26988 33 3.72253 33Z" fill="#691DED"/>
</svg> 
