<svg width="200" height="200" viewBox="0 0 200 200" fill="none" xmlns="http://www.w3.org/2000/svg">
<rect width="200" height="200" rx="50" fill="#00E417" fill-opacity="0.2"/>
<path fill-rule="evenodd" clip-rule="evenodd" d="M85.3501 14H114.729V18.1959H121.022V24.4914H112.628V20.2955H108.432V24.4925H104.237V53.8738H167.19V62.2678H133.614V70.6591H137.81V89.5457H131.514V72.7604H125.22V62.2678H104.237V95.8403H137.81V89.5476H146.204V95.8403H175.455V90.479H179.782V87.4497H173.486V79.0556H179.782V85.3482H186.077V85.3501V114.727V114.729H179.782V121.022H173.486V112.628H179.782V107.262H175.455V104.237H146.204V110.53H137.81V104.237H62.2642V110.53H53.8702V104.237H24.4925V108.432V108.433H20.2955V112.628H26.591L26.591 121.022H20.2955L20.2955 114.729H14V114.727V85.3501V85.3482H20.2955L20.2955 79.0556H26.591L26.591 87.4497H20.2955V91.644H24.4925V91.6454V95.8403H53.8702V89.5476H62.2642V95.8403H95.8431V62.2678H74.8583V72.7604H68.5639V89.5457H62.2684V70.6591H66.4643V62.2678H32.8859V66.4636L32.8859 66.4643V74.8577H26.591L26.591 79.0546H20.2955L20.2955 72.7591H24.4919V66.4643L24.4919 66.4636V60.1687H32.8858V53.8738H95.8431V24.4925H91.6462V32.8858H85.3502V37.0833H79.0546V30.7878H83.2522V24.4918H91.644V20.2955H87.4487V24.4914H79.0546V18.1959H85.3501V14ZM108.433 24.4919H116.827V30.7874H121.023V37.0829H114.727V32.8859H108.433V24.4919ZM37.0833 47.5752H32.8858V53.8708H39.1814V49.6749H45.4774V43.3789H49.6759V37.0833H43.3804V41.2808H37.0833V47.5752ZM162.996 47.5752H167.192V53.8708H160.897V49.6749H154.602V43.3789H150.404V37.0833H156.699V41.2808H162.996V47.5752ZM179.782 79.0546H173.486V74.8577H167.192V66.4643V66.4636V60.1687H175.586V66.4636V66.4643V72.7591H179.782V79.0546ZM150.404 30.7874H144.108V37.0829H150.404V30.7874ZM137.81 30.7874H144.105V37.0829H137.81V32.8859H131.515H131.514H125.22V24.4919H131.514H131.515H137.81V30.7874ZM55.9692 30.7874H49.6737V37.0829H55.9692H55.9692H62.2647V30.7874H55.9692H55.9692ZM68.5638 24.4919H62.2684V32.8859H68.5638H68.5639H74.8593V24.4919H68.5639H68.5638ZM72.7587 18.1959H79.0542V24.4914H72.7587V18.1959ZM127.318 18.1959H121.022V24.4914H127.318V18.1959ZM127.318 37.0833H121.022V53.8714H127.318V37.0833ZM72.7587 37.0833H79.0542V53.8714H72.7587V37.0833ZM114.729 186.077H85.3501V181.882H79.0546V175.586H87.4487V179.782L91.644 179.782V175.586H83.2522V169.29H79.0546V162.994H85.3502V167.192H91.6462V175.585H95.8431V146.204H32.8858V139.909H24.4919V133.614L24.4919 133.613V127.318H20.2955L20.2955 121.022H26.591L26.591 125.22H32.8859V133.613L32.8859 133.614V137.81H66.4643V129.418H62.2684V110.532H68.5639V127.317H74.8583V137.81H95.8431V104.237H104.237V137.81H125.22V127.317H131.514V110.532H137.81V129.418H133.614V137.81H167.19V146.204H104.237V175.585H108.432V179.782L112.628 179.782V175.587H108.433V167.193H114.727V162.996H121.023V169.291H116.827V175.586H121.022V181.882H114.729V186.077ZM32.8858 152.503H37.0833V158.797H43.3804V162.994H49.6759V156.699H45.4774V150.403H39.1814V146.208H32.8858V152.503ZM167.192 152.503H162.996V158.797H156.699V162.994H150.404V156.699H154.602V150.403H160.897V146.208H167.192V152.503ZM173.486 121.022H179.782V127.318H175.586V133.613V133.614V139.909H167.192V133.614V133.613V125.22H173.486V121.022ZM144.108 169.291H150.404V162.996H144.108V169.291ZM144.105 169.291H137.81L137.81 175.587H131.515H131.514H127.318V181.882H121.022V175.586H125.22V167.193H131.514H131.515H137.81L137.81 162.996H144.105V169.291ZM49.6737 169.291H55.9692H62.2647V162.996H55.9692H49.6737V169.291ZM62.2684 175.587H68.5639H72.7587V181.882H79.0542V175.586H74.8593V167.193H68.5639H62.2684V175.587ZM121.022 162.994H127.318V146.206H121.022V162.994ZM79.0542 162.994H72.7587V146.206H79.0542V162.994Z" fill="#00E417"/>
</svg>
