<svg width="2108" height="2256" viewBox="0 0 2108 2256" fill="none" xmlns="http://www.w3.org/2000/svg">
<path d="M168.299 597.519C115.392 567.657 116.29 491.205 169.882 462.591L1019.26 9.08518C1041.91 -3.00809 1069.1 -3.02965 1091.77 9.02821L1944.39 462.537C1998.13 491.121 1999.03 567.75 1945.97 597.581L1093.35 1077.01C1069.85 1090.22 1041.16 1090.2 1017.68 1076.95L168.299 597.519Z" fill="url(#paint0_linear_125_313)"/>
<path d="M997.717 2178.12C997.717 2237.23 933.809 2274.29 882.452 2244.96L38.8193 1763.27C14.8144 1749.56 0 1724.05 0 1696.42V719.006C0 659.899 63.9064 622.847 115.268 652.169L958.895 1133.86C982.902 1147.57 997.717 1173.08 997.717 1200.7V2178.12Z" fill="url(#paint1_linear_125_313)"/>
<path d="M2107.15 726.404C2107.15 667.366 2043.37 630.299 1992.01 659.49L1148.38 1138.96C1124.3 1152.64 1109.43 1178.19 1109.43 1205.87V2178.15C1109.43 2237.2 1173.21 2274.26 1224.56 2245.07L2068.19 1765.6C2092.28 1751.92 2107.15 1726.37 2107.15 1698.68V726.404Z" fill="url(#paint2_linear_125_313)"/>
<path d="M1456.13 1183.04L1271.22 1291.31V2026L1456.13 1925.46V1183.04Z" fill="white"/>
<path d="M154.088 894.289L338.993 1002.07V1735.97L154.088 1635.58V894.289Z" fill="white"/>
<path d="M654.872 1186.82L839.777 1294.92V2028.5L654.872 1928.12V1186.82Z" fill="white"/>
<path d="M1456.13 1183.1L1895.28 932.904V1125.3L1456.13 1360.1L1386.79 1298.51L1456.13 1183.1Z" fill="white"/>
<path d="M1456.13 1748.86L1895.28 1498.67V1691.06L1456.13 1925.86L1386.79 1864.27L1456.13 1748.86Z" fill="white"/>
<path d="M154.088 1117.54L338.991 1002.07L593.852 1444.98L431.444 1510.15L154.088 1117.54Z" fill="white"/>
<path d="M652.816 1186.82L771.193 1328.75L472.778 1577.26L365.958 1417.77L652.816 1186.82Z" fill="white"/>
<defs>
<linearGradient id="paint0_linear_125_313" x1="520.126" y1="24.4102" x2="1593.94" y2="1033.67" gradientUnits="userSpaceOnUse">
<stop stop-color="#8B2AB2"/>
<stop offset="1" stop-color="#9146FF"/>
</linearGradient>
<linearGradient id="paint1_linear_125_313" x1="498.859" y1="2310.78" x2="498.859" y2="586.357" gradientUnits="userSpaceOnUse">
<stop stop-color="#8B2AB2"/>
<stop offset="1" stop-color="#9146FF"/>
</linearGradient>
<linearGradient id="paint2_linear_125_313" x1="1608.29" y1="594.055" x2="1608.29" y2="2310.51" gradientUnits="userSpaceOnUse">
<stop stop-color="#8B2AB2"/>
<stop offset="1" stop-color="#9146FF"/>
</linearGradient>
</defs>
</svg>
