<svg width="85" height="85" viewBox="0 0 85 85" fill="none" xmlns="http://www.w3.org/2000/svg">
<rect x="0.583496" width="83.5833" height="85" rx="41.7917" fill="#303035"/>
<path d="M42.3753 25.0904C47.914 25.0904 48.6693 25.0904 50.9351 25.0904C52.9491 25.0904 53.9562 25.6024 54.7114 25.8584C55.7184 26.3705 56.4737 26.6265 57.229 27.3946C57.9843 28.1627 58.4878 28.9307 58.7395 29.9548C58.9913 30.7229 59.243 31.747 59.4948 33.7952C59.4948 36.0994 59.4948 36.6114 59.4948 42.5C59.4948 48.3886 59.4948 48.9006 59.4948 51.2048C59.4948 53.253 58.9913 54.2771 58.7395 55.0452C58.236 56.0693 57.9843 56.8374 57.229 57.6054C56.4737 58.3735 55.7184 58.8855 54.7114 59.1416C53.9562 59.3976 52.9491 59.6536 50.9351 59.9096C48.6693 59.9096 48.1657 59.9096 42.3753 59.9096C36.5849 59.9096 36.0814 59.9096 33.8156 59.9096C31.8015 59.9096 30.7945 59.3976 30.0392 59.1416C29.0322 58.6295 28.2769 58.3735 27.5217 57.6054C26.7664 56.8374 26.2629 56.0693 26.0111 55.0452C25.7594 54.2771 25.5076 53.253 25.2558 51.2048C25.2558 48.9006 25.2558 48.3886 25.2558 42.5C25.2558 36.6114 25.2558 36.0994 25.2558 33.7952C25.2558 31.747 25.7594 30.7229 26.0111 29.9548C26.5146 28.9307 26.7664 28.1627 27.5217 27.3946C28.2769 26.6265 29.0322 26.1145 30.0392 25.8584C30.7945 25.6024 31.8015 25.3464 33.8156 25.0904C36.0814 25.0904 36.8367 25.0904 42.3753 25.0904ZM42.3753 21.25C36.5849 21.25 36.0814 21.25 33.8156 21.25C31.5498 21.25 30.0392 21.762 28.7804 22.2741C27.5217 22.7861 26.2629 23.5542 25.0041 24.8343C23.7453 26.1145 23.2418 27.1386 22.4865 28.6747C21.983 29.9548 21.7312 31.491 21.4795 33.7952C21.4795 36.0994 21.4795 36.8675 21.4795 42.5C21.4795 48.3886 21.4795 48.9006 21.4795 51.2048C21.4795 53.509 21.983 55.0452 22.4865 56.3253C22.99 57.6054 23.7453 58.8855 25.0041 60.1657C26.2629 61.4458 27.2699 61.9578 28.7804 62.7259C30.0392 63.238 31.5498 63.494 33.8156 63.75C36.0814 63.75 36.8367 63.75 42.3753 63.75C47.914 63.75 48.6693 63.75 50.9351 63.75C53.2009 63.75 54.7114 63.238 55.9702 62.7259C57.229 62.2139 58.4878 61.4458 59.7466 60.1657C61.0053 58.8855 61.5089 57.8615 62.2641 56.3253C62.7677 55.0452 63.0194 53.509 63.2712 51.2048C63.2712 48.9006 63.2712 48.1325 63.2712 42.5C63.2712 36.8675 63.2712 36.0994 63.2712 33.7952C63.2712 31.491 62.7677 29.9548 62.2641 28.6747C61.7606 27.3946 61.0053 26.1145 59.7466 24.8343C58.4878 23.5542 57.4808 23.0422 55.9702 22.2741C54.7114 21.762 53.2009 21.506 50.9351 21.25C48.6693 21.25 48.1657 21.25 42.3753 21.25Z" fill="white"/>
<path d="M42.3753 31.491C36.3332 31.491 31.5498 36.3554 31.5498 42.5C31.5498 48.6446 36.3332 53.509 42.3753 53.509C48.4175 53.509 53.2009 48.6446 53.2009 42.5C53.2009 36.3554 48.4175 31.491 42.3753 31.491ZM42.3753 49.6687C38.599 49.6687 35.3261 46.5964 35.3261 42.5C35.3261 38.6596 38.3472 35.3313 42.3753 35.3313C46.1517 35.3313 49.4245 38.4036 49.4245 42.5C49.4245 46.3404 46.1517 49.6687 42.3753 49.6687Z" fill="white"/>
<path d="M53.4526 33.7952C54.8431 33.7952 55.9702 32.6489 55.9702 31.2349C55.9702 29.821 54.8431 28.6747 53.4526 28.6747C52.0622 28.6747 50.9351 29.821 50.9351 31.2349C50.9351 32.6489 52.0622 33.7952 53.4526 33.7952Z" fill="white"/>
</svg>
