<svg width="85" height="85" viewBox="0 0 85 85" fill="none" xmlns="http://www.w3.org/2000/svg">
<rect width="85" height="85" rx="42.5" fill="#303035"/>
<path d="M61.6835 29.8067C58.1744 27.0866 53.9634 25.7267 49.5184 25.5L48.8165 26.18C52.7936 27.0866 56.3028 28.8999 59.578 31.3933C55.6009 29.3533 51.156 27.9934 46.477 27.54C45.0734 27.3133 43.9036 27.3133 42.5 27.3133C41.0964 27.3133 39.9266 27.3133 38.523 27.54C33.844 27.9934 29.3991 29.3533 25.422 31.3933C28.6972 28.8999 32.2064 27.0866 36.1835 26.18L35.4816 25.5C31.0366 25.7267 26.8256 27.0866 23.3165 29.8067C19.3394 37.0601 17.2339 45.22 17 53.6065C20.5091 57.2333 25.422 59.5 30.5689 59.5C30.5689 59.5 32.2064 57.6867 33.3761 56.0999C30.3349 55.42 27.5275 53.8332 25.656 51.34C27.2936 52.2466 28.9311 53.1533 30.5689 53.8332C32.6744 54.74 34.7799 55.1933 36.8854 55.6467C38.7569 55.8732 40.6285 56.0999 42.5 56.0999C44.3715 56.0999 46.2431 55.8732 48.1146 55.6467C50.2201 55.1933 52.3256 54.74 54.4311 53.8332C56.0689 53.1533 57.7065 52.2466 59.344 51.34C57.4725 53.8332 54.6651 55.42 51.6239 56.0999C52.7936 57.6867 54.4311 59.5 54.4311 59.5C59.578 59.5 64.4909 57.2333 68 53.6065C67.766 45.22 65.6605 37.0601 61.6835 29.8067ZM34.7799 49.5266C32.4404 49.5266 30.3349 47.4866 30.3349 44.9934C30.3349 42.5 32.4404 40.46 34.7799 40.46C37.1193 40.46 39.2248 42.5 39.2248 44.9934C39.2248 47.4866 37.1193 49.5266 34.7799 49.5266ZM50.2201 49.5266C47.8807 49.5266 45.7752 47.4866 45.7752 44.9934C45.7752 42.5 47.8807 40.46 50.2201 40.46C52.5596 40.46 54.6651 42.5 54.6651 44.9934C54.6651 47.4866 52.5596 49.5266 50.2201 49.5266Z" fill="white"/>
</svg>
