<svg width="201" height="201" viewBox="0 0 201 201" fill="none" xmlns="http://www.w3.org/2000/svg">
<g clip-path="url(#clip0_440_929)">
<g clip-path="url(#clip1_440_929)">
<rect x="-0.0458984" y="0.986969" width="200" height="200" rx="50" fill="black" fill-opacity="0.2"/>
<path fill-rule="evenodd" clip-rule="evenodd" d="M85.3047 14.987H114.684V19.1829H120.976V25.4784H112.582V21.2825L108.386 21.2824V25.4795H104.191V54.8608H167.144V63.2548H133.568V71.6461H137.763V90.5327H131.468V73.7473H125.174V63.2548H104.191V96.8273H137.764V90.5346H146.158V96.8273H175.409V91.466H179.736V88.4366H173.441V80.0426H179.736V86.3352H186.032V86.3371V115.714V115.716H179.736V122.009H173.441V113.615H179.736V108.249H175.409V105.224H146.158V111.517H137.764V105.224H62.2183V111.517H53.8243V105.224H24.447V109.419V109.42H20.25V109.419V105.224H20.2496V115.714V115.716H13.9541V115.714V86.3371V86.3352H20.2496V86.3371V96.8273H20.25V92.6324V92.631H24.447V92.6324V96.8273H53.8243V90.5346H62.2183V96.8273H95.7969V63.2548L74.812 63.2548V73.7473H68.518V90.5326H62.2225V71.6461H66.418V63.2548L32.8403 63.2548V67.4506V67.4513V75.8446H26.5455L26.5455 80.0416H20.25L20.25 73.7461H24.4463V67.4513L24.4463 67.4506V61.1557H32.8399V54.8608H95.7969V25.4795H91.6003V33.8728H85.3043V38.0703H79.0087V31.7748H83.2062V25.4788H91.5977V21.2824L87.4028 21.2825V25.4784H79.0087V19.1829H85.3047V14.987ZM108.388 25.4789H116.782V31.7743H120.977V38.0698H114.681V33.8729H108.388V25.4789ZM37.0371 48.5622H32.8399V54.8577H39.1355V50.6618H45.4311V44.3658H49.6305V38.0703H43.335V42.2678H37.0371V48.5622ZM162.951 48.5622H167.146V54.8577H160.851V50.6618H154.557V44.3658H150.357V38.0703H156.653V42.2678H162.951V48.5622ZM179.736 80.0416H173.441V75.8446H167.146V67.4512V67.4506V61.1557H175.54V67.4506V67.4512V73.7461H179.736V80.0416ZM26.5455 88.4366H20.25L20.25 80.0426H26.5455L26.5455 88.4366ZM150.358 31.7743H144.062V38.0698H150.358V31.7743ZM137.764 31.7743H144.059V38.0698H137.764V31.7743ZM55.9229 31.7743L49.6278 31.7743V38.0698L55.9229 38.0698L55.9233 38.0698L62.2184 38.0698V31.7743L55.9233 31.7743L55.9229 31.7743ZM68.5176 25.4789L62.2225 25.4789V33.8729H68.518L74.8131 33.8729V25.4789H68.5176ZM72.7128 19.1829H79.0083V25.4784H72.7128V19.1829ZM127.272 19.1829H120.976V25.4784H127.272V19.1829ZM137.763 25.4789H131.468L125.174 25.4789V33.8729H131.469L137.763 33.8729V25.4789ZM127.272 38.0703H120.976V54.8584H127.272V38.0703ZM72.7128 38.0703H79.0083V54.8584H72.7128V38.0703ZM114.684 187.064H85.3047V182.868H79.0087V176.573H87.4028V180.769L91.5977 180.769V176.573H83.2062V170.277H79.0087V163.981H85.3043V168.179H91.6003V176.572H95.7969V147.191H32.8399V140.896H24.4463V134.601L24.4463 134.6V128.305H20.25L20.25 122.009H26.5455L26.5455 126.207H32.8403V134.6V134.601V138.797L66.418 138.797V130.405H62.2225V111.519H68.518V128.304H74.812V138.797L95.7969 138.797V105.224H104.191V138.797H125.174V128.304H131.468V111.519H137.763V130.405H133.568V138.797H167.144V147.191H104.191V176.572H108.386V180.769L112.582 180.769V176.574H108.388V168.18H114.681V163.983H120.977V170.278H116.782V176.573H120.976V182.868H114.684V187.064ZM32.8399 153.49H37.0371V159.784H43.335V163.981H49.6305V157.686H45.4311V151.39H39.1355V147.195H32.8399V153.49ZM167.146 153.49H162.951V159.784H156.653V163.981H150.357V157.686H154.557V151.39H160.851V147.195H167.146V153.49ZM173.441 122.009H179.736V128.305H175.54V134.6V134.601V140.896H167.146V134.601V134.6V126.207H173.441V122.009ZM20.25 113.615H26.5455L26.5455 122.009H20.25L20.25 113.615ZM144.062 170.278H150.358V163.983H144.062V170.278ZM144.059 170.278H137.764V163.983H144.059V170.278ZM49.6278 170.278L55.9229 170.278L55.9233 170.278L62.2184 170.278V163.983L55.9233 163.983L55.9229 163.983L49.6278 163.983V170.278ZM62.2225 176.574L68.5176 176.574H72.7128V182.868H79.0083V176.573H74.8131V168.18L68.518 168.18H62.2225V176.574ZM120.976 182.868H127.272V176.574L131.468 176.574H137.763V168.18L131.469 168.18H125.174V176.573H120.976V182.868ZM120.976 163.981H127.272V147.193H120.976V163.981ZM79.0083 163.981H72.7128V147.193H79.0083V163.981Z" fill="black"/>
</g>
<g clip-path="url(#clip2_440_929)">
<rect x="-0.223633" y="0.776672" width="200" height="200" rx="50" fill="#8200D2" fill-opacity="0.2"/>
<path fill-rule="evenodd" clip-rule="evenodd" d="M85.127 14.7767H114.506V18.9726H120.798V25.2681H112.404V21.0722L108.208 21.0721V25.2692H104.013V54.6505H166.967V63.0445H133.39V71.4358H137.586V90.3224H131.29V73.537H124.996V63.0445H104.013V96.617H137.586V90.3243H145.98V96.617H175.232V91.2557H179.559V88.2263H173.263V79.8323H179.559V86.1249H185.854V86.1268V115.504V115.506H179.559V121.798H173.263V113.404H179.559V108.039H175.232V105.014H145.98V111.306H137.586V105.014H62.0406V111.306H53.6465V105.014H24.2693V109.209V109.21H20.0723V109.209V105.014H20.0719V115.504V115.506H13.7764V115.504V86.1268V86.1249H20.0719V86.1268V96.617H20.0723V92.4221V92.4207H24.2693V92.4221V96.617H53.6465V90.3243H62.0406V96.617H95.6191V63.0445L74.6343 63.0445V73.537H68.3402V90.3224H62.0447V71.4358H66.2402V63.0445L32.6626 63.0445V67.2403V67.241V75.6343H26.3678L26.3678 79.8313H20.0723L20.0723 73.5358H24.2686V67.241L24.2686 67.2403V60.9454H32.6622V54.6505H95.6191V25.2692H91.4225V33.6625H85.1265V37.86H78.831V31.5645H83.0285V25.2685H91.4199V21.0721L87.225 21.0722V25.2681H78.831V18.9726H85.127V14.7767ZM108.21 25.2686H116.604V31.564H120.799V37.8595H114.504V33.6626H108.21V25.2686ZM36.8594 48.3519H32.6622V54.6474H38.9577V50.4515H45.2534V44.1555H49.4527V37.86H43.1572V42.0575H36.8594V48.3519ZM162.773 48.3519H166.969V54.6474H160.673V50.4515H154.379V44.1555H150.18V37.86H156.475V42.0575H162.773V48.3519ZM179.559 79.8313H173.263V75.6344H166.968V67.2409V67.2403V60.9454H175.362V67.2403V67.2409V73.5358H179.559V79.8313ZM26.3678 88.2263H20.0723L20.0723 79.8323H26.3678L26.3678 88.2263ZM150.18 31.564H143.885V37.8595H150.18V31.564ZM137.586 31.564H143.881V37.8595H137.586V31.564ZM55.7451 31.564L49.4501 31.564V37.8595L55.7451 37.8595L55.7456 37.8595L62.0406 37.8595V31.564L55.7456 31.564L55.7451 31.564ZM68.3398 25.2686L62.0447 25.2686V33.6626H68.3402L74.6354 33.6626V25.2686H68.3398ZM72.535 18.9726H78.8305V25.2681H72.535V18.9726ZM127.094 18.9726H120.799V25.2681H127.094V18.9726ZM137.586 25.2686H131.29L124.996 25.2686V33.6626H131.292L137.586 33.6626V25.2686ZM127.094 37.86H120.799V54.6481H127.094V37.86ZM72.535 37.86H78.8305V54.6481H72.535V37.86ZM114.506 186.854H85.127V182.658H78.831V176.363H87.225V180.559L91.4199 180.559V176.362H83.0285V170.066H78.831V163.771H85.1265V167.968H91.4225V176.362H95.6191V146.98H32.6622V140.685H24.2686V134.39L24.2686 134.39V128.094H20.0723L20.0723 121.799H26.3678L26.3678 125.996H32.6626V134.39V134.39V138.586L66.2402 138.586V130.195H62.0447V111.308H68.3402V128.094H74.6343V138.586L95.6191 138.586V105.014H104.013V138.586H124.996V128.094H131.29V111.308H137.586V130.195H133.39V138.586H166.967V146.98H104.013V176.362H108.208V180.559L112.404 180.559V176.363H108.21V167.969H114.504V163.772H120.799V170.068H116.604V176.363H120.798V182.658H114.506V186.854ZM32.6622 153.28H36.8594V159.573H43.1572V163.771H49.4527V157.475H45.2534V151.179H38.9577V146.984H32.6622V153.28ZM166.969 153.28H162.773V159.573H156.475V163.771H150.18V157.475H154.379V151.179H160.673V146.984H166.969V153.28ZM173.263 121.799H179.559V128.094H175.362V134.39V134.39V140.685H166.968V134.39V134.39V125.996H173.263V121.799ZM20.0723 113.404H26.3678L26.3678 121.798H20.0723L20.0723 113.404ZM143.885 170.068H150.18V163.772H143.885V170.068ZM143.881 170.068H137.586V163.772H143.881V170.068ZM49.4501 170.068L55.7451 170.068L55.7456 170.068L62.0406 170.068V163.772L55.7456 163.772L55.7451 163.772L49.4501 163.772V170.068ZM62.0447 176.363L68.3398 176.363H72.535V182.658H78.8305V176.363H74.6354V167.969L68.3402 167.969H62.0447V176.363ZM120.799 182.658H127.094V176.363L131.29 176.363H137.586V167.969L131.292 167.969H124.996V176.363H120.799V182.658ZM120.799 163.771H127.094V146.983H120.799V163.771ZM78.8305 163.771H72.535V146.983H78.8305V163.771Z" fill="#8200D2"/>
</g>
</g>
<defs>
<clipPath id="clip0_440_929">
<rect width="201" height="201" fill="white"/>
</clipPath>
<clipPath id="clip1_440_929">
<rect width="250" height="125.163" fill="white" transform="translate(11.6611 189.05) rotate(-45)"/>
</clipPath>
<clipPath id="clip2_440_929">
<rect width="250" height="125.111" fill="white" transform="translate(-77 100.777) rotate(-45)"/>
</clipPath>
</defs>
</svg>
