<svg width="84" height="85" viewBox="0 0 84 85" fill="none" xmlns="http://www.w3.org/2000/svg">
<rect width="83.5833" height="85" rx="41.7917" fill="#303035"/>
<path fill-rule="evenodd" clip-rule="evenodd" d="M23.5338 57.4957C22.7141 57.2491 21.9663 56.8104 21.3533 56.2166C20.7403 55.6228 20.2802 54.8913 20.0117 54.0839C18.4779 49.9107 18.0235 32.4847 20.9775 29.0447C21.9606 27.9256 23.3487 27.2366 24.8404 27.1272C32.7651 26.2813 57.2492 26.3941 60.0612 27.4092C60.8521 27.6639 61.5747 28.093 62.1748 28.6644C62.7749 29.2357 63.237 29.9345 63.5265 30.7083C65.2023 35.0225 65.2591 50.7002 63.2992 54.8452C62.7794 55.9242 61.909 56.7981 60.8281 57.3265C57.8741 58.7928 27.4535 58.7646 23.5338 57.4957ZM36.1167 49.3185L50.3187 41.9872L36.1167 34.5995V49.3185Z" fill="white"/>
</svg>
