<svg viewBox="0 0 480 480" fill="none" xmlns="http://www.w3.org/2000/svg"><rect width="480" height="480" rx="130" fill="#fff"/><rect width="480" height="480" rx="130" fill="#134E4A"/><rect width="480" height="480" rx="130" fill="#000" fill-opacity=".5"/><rect x="9" y="9" width="462" height="462" rx="121" fill="#0A2725" stroke="#134E4A" stroke-width="18"/><g clip-path="url(#a)" opacity=".45"><path fill="#0B5D56" d="M336 32.5h144v36H336z"/><path fill="#253233" d="M408-3.5h72v36h-72z"/><path opacity=".9" fill="#0B5D56" d="M300 68.5h180v36H300z"/><path opacity=".8" fill="#0B5D56" d="M372 104.5h108v36H372z"/><path d="M300 68.5v-36l-36 36h36Zm0-36h36v36h-36zm-36 36h36v36h-36z" fill="#1B7D72"/><path opacity=".8" fill="#1B7D72" d="M264 104.5h36v36h-36z"/><path opacity=".7" fill="#1B7D72" d="M264 140.5h36v36h-36z"/><path opacity=".6" fill="#1B7D72" d="M264 176.5h36v36h-36z"/></g><path fill-rule="evenodd" clip-rule="evenodd" d="M29.12 432A129.75 129.75 0 0 0 130 480h206v-48H29.12Z" fill="#2343F9"/><path fill-rule="evenodd" clip-rule="evenodd" d="M29.12 432H336v-48h48v-96h48v-96h-48v-48h-96v48h-48v-48h-96v48H96v48H48v96H0v14c0 31.09 10.91 59.63 29.12 82Z" fill="#558336"/><path fill-rule="evenodd" clip-rule="evenodd" d="M240 240h-48v48h48v-48Zm144 0h-48v48h48v-48Z" fill="#000"/><path fill-rule="evenodd" clip-rule="evenodd" d="M192 240h-48v48h48v-48Zm144 0h-96v48h96v-48Z" fill="#fff"/><path fill="#994E35" d="M192 336h192v48H192z"/><rect x="9" y="9" width="462" height="462" rx="121" stroke="#134E4A" stroke-width="18"/><defs><clipPath id="a"><rect width="480" height="480" rx="144" fill="#fff"/></clipPath></defs></svg>