<svg width="76" height="76" viewBox="0 0 76 76" fill="none" xmlns="http://www.w3.org/2000/svg">
<path d="M54.2499 33.9999H42V21.75L45.9999 17.75V26.75L53.9999 18.75L57.2499 22L49.2499 30H58.2499L54.2499 33.9999ZM34 21.75V33.9999H21.75L17.75 30H26.75L18.75 22L22 18.75L30 26.75V17.75L34 21.75ZM21.75 41.9999H34V54.2499L30 58.2499V49.2499L22 57.2499L18.75 53.9999L26.75 45.9999H17.75L21.75 41.9999ZM42 54.2499V41.9999H54.2499L58.2499 45.9999L49.2499 46L57.2499 53.9999L53.9999 57.2499L45.9999 49.2499V58.2499L42 54.2499Z" fill="white"/>
</svg>
