<svg width="76" height="76" viewBox="0 0 76 76" fill="none" xmlns="http://www.w3.org/2000/svg">
<path d="M42.5 22C49.4036 22 55 27.5964 55 34.5C55 41.4036 49.4036 47 42.5 47C40.1356 47 37.9245 46.3435 36 45.2426L26.9749 54.2678C25.8033 55.4393 23.9038 55.4393 22.7322 54.2678C21.5607 53.0962 21.5607 51.1967 22.7322 50.0251L31.7971 40.961C30.6565 39.0755 30 36.8644 30 34.5C30 27.5964 35.5964 22 42.5 22ZM42.5 26C37.8056 26 34 29.8056 34 34.5C34 39.1944 37.8056 43 42.5 43C47.1944 43 51 39.1944 51 34.5C51 29.8056 47.1944 26 42.5 26Z" fill="white"/>
</svg>
