<svg width="182" height="76" viewBox="0 0 182 76" fill="none" xmlns="http://www.w3.org/2000/svg">
<mask id="mask0_4106_1039" style="mask-type:luminance" maskUnits="userSpaceOnUse" x="0" y="0" width="182" height="76">
<path d="M169.662 0H11.6027C5.19471 0 0 5.19471 0 11.6027V63.4865C0 69.8945 5.19471 75.0892 11.6027 75.0892H169.662C176.07 75.0892 181.265 69.8945 181.265 63.4865V11.6027C181.265 5.19471 176.07 0 169.662 0Z" fill="white"/>
</mask>
<g mask="url(#mask0_4106_1039)">
<path d="M90.0689 16.5196L85.6491 8.06081C83.0602 3.1058 77.9342 0 72.3454 0H62.8603H27.4172C20.6464 0 14.7137 4.53426 12.9335 11.0694L0.661542 56.1227C-1.94031 65.6757 5.24811 75.0892 15.145 75.0892H58.5787C62.4127 75.0892 66.1014 73.6216 68.8883 70.9875L88.0671 52.8591L95.5977 67.0956C98.1991 72.0132 103.305 75.0892 108.866 75.0892H154.166C160.962 75.0892 166.912 70.5208 168.668 63.9523L172.015 51.4361H152.367L151.242 56.3169H111.085L105.08 45.0535H173.72L180.715 18.8986C183.265 9.36186 176.08 0 166.214 0H122.671C118.845 0 115.163 1.46195 112.378 4.08679L91.6173 23.6531H118.966L124.22 18.7723H160.999L157.995 30.0357H112.213H84.8613L57.043 56.3169H19.8899L22.9295 45.0535H49.1619C50.1981 45.0535 51.0383 44.2129 51.0383 43.1763V31.9129C51.0383 30.8761 50.1981 30.0357 49.1619 30.0357H26.9828L30.0225 18.7723H70.1786L75.8079 29.6602L90.0689 16.5196Z" fill="white"/>
</g>
</svg>
