<svg width="150" height="150" viewBox="0 0 150 150" fill="none" xmlns="http://www.w3.org/2000/svg">
<rect width="150" height="150" rx="50" fill="#8200D2" fill-opacity="0.2"/>
<path fill-rule="evenodd" clip-rule="evenodd" d="M64.0128 10.5H86.0471V13.647H90.7669V18.3686H84.4714V15.2216H81.3234V18.3693H78.1778V40.4053H125.392V46.7009H100.21V52.9943H103.357V67.1593H98.6355V54.5703H93.9148V46.7009H78.1778V71.8802H103.357V67.1607H109.653V71.8802H131.591V67.8593H134.836V65.5873H130.115V59.2918L134.836 59.2918V64.0111H139.558V64.0126V86.0454V86.0469H134.836V90.7664H130.115V84.4708H134.836V80.4464H131.591V78.1778H109.653V82.8973H103.357V78.1778H46.6987V82.8973H40.4031V78.1778H18.3695V81.324V81.3252H15.2217V81.324V78.1778H15.2216V86.0454V86.0469H10.5V86.0454V64.0126V64.0111H15.2216V64.0126V71.8802H15.2217V68.7341V68.733H18.3695V68.7341V71.8802H40.4031V67.1607H46.6987V71.8802H71.8823V46.7009H56.1432V54.5703H51.4236V67.1593H46.702V52.9943H49.8476V46.7009H24.665V49.8477V49.8481V56.1432H19.9434V59.291H15.2217L15.2217 54.5694H18.3695V49.8481L18.3695 49.8477V45.1265H24.6641V40.4053H71.8823V18.3693H68.7344V24.6644H64.0127V27.8125H59.2911V23.0909H62.4389V18.3689H68.7323V15.2216H65.5866V18.3686H59.2911V13.647H64.0128V10.5ZM81.3257 18.369H87.6213V23.0905H90.7669V27.8122H86.0453V24.6645H81.3257V18.369ZM27.813 35.6814H24.6641V40.403H29.3857V37.2561H34.1085V32.5342H37.2574V27.8125H32.5357V30.9606H27.813V35.6814ZM122.247 35.6814H125.394V40.403H120.672V37.2561H115.952V32.5342H112.803V27.8125H117.524V30.9606H122.247V35.6814ZM134.836 59.291H130.115V56.1432H125.394V49.8481V49.8477V45.1265H131.69V49.8477V49.8481V54.5694H134.836V59.291ZM19.9434 65.5873H15.2217L15.2217 59.2918L19.9434 59.2918L19.9434 65.5873ZM112.803 23.0905H108.081V27.8122H112.803V23.0905ZM103.357 23.0905H108.079V27.8122H103.357V23.0905ZM41.977 23.0905H37.2553V27.8122H41.977V23.0905ZM41.977 23.0905H46.6987V27.8122H41.977V23.0905ZM51.4226 18.369H46.702V24.6645H51.4226H51.4236H56.1442V18.369H51.4236H51.4226ZM54.5693 13.647H59.291V18.3686H54.5693V13.647ZM95.4887 13.647H90.767V18.3686H95.4887V13.647ZM103.357 18.369H98.6365H98.6355H93.9148V24.6645H98.6355H98.6365H103.357V18.369ZM95.4887 27.8125H90.767V40.4036H95.4887V27.8125ZM54.5693 27.8125H59.291V40.4036H54.5693V27.8125ZM86.0471 139.558H64.0128V136.411H59.2911V131.69H65.5866V134.836H68.7323V131.689H62.4389V126.967H59.2911V122.246H64.0127V125.394H68.7344V131.689H71.8823V109.653H24.6641V104.932H18.3695V100.21L18.3695 100.21V95.4884H15.2217L15.2217 90.7667H19.9434V93.9148H24.665V100.21V100.21V103.357H49.8476V97.0638H46.702V82.8989H51.4236V95.4878H56.1432V103.357H71.8823V78.1779H78.1778V103.357H93.9148V95.4878H98.6355V82.8989H103.357V97.0638H100.21V103.357H125.392V109.653H78.1778V131.689H81.3234V134.836H84.4714V131.69H81.3257V125.394H86.0453V122.247H90.7669V126.968H87.6213V131.69H90.7669V136.411H86.0471V139.558ZM24.6641 114.377H27.813V119.097H32.5357V122.246H37.2574V117.524H34.1085V112.802H29.3857V109.656H24.6641V114.377ZM125.394 114.377H122.247V119.097H117.524V122.246H112.803V117.524H115.952V112.802H120.672V109.656H125.394V114.377ZM130.115 90.7667H134.836V95.4884H131.69V100.21V100.21V104.932H125.394V100.21V100.21V93.9148H130.115V90.7667ZM15.2217 84.4708H19.9434L19.9434 90.7664H15.2217L15.2217 84.4708ZM108.081 126.968H112.803V122.247H108.081V126.968ZM108.079 126.968H103.357V122.247H108.079V126.968ZM37.2553 126.968H41.977V122.247H37.2553V126.968ZM46.6987 126.968H41.977V122.247H46.6987V126.968ZM46.702 131.69H51.4226H51.4236H54.5693V136.411H59.291V131.69H56.1442V125.394H51.4236H51.4226H46.702V131.69ZM90.767 136.411H95.4887V131.69H98.6355H98.6365H103.357V125.394H98.6365H98.6355H93.9148V131.69H90.767V136.411ZM90.767 122.246H95.4887V109.655H90.767V122.246ZM59.291 122.246H54.5693V109.655H59.291V122.246Z" fill="#8200D2"/>
</svg>
